<?xml version="1.0" encoding="utf-8"?>
<!-- Generator: Adobe Illustrator 21.0.1, SVG Export Plug-In . SVG Version: 6.00 Build 0)  -->
<svg version="1.1" id="Layer_1" xmlns="http://www.w3.org/2000/svg" xmlns:xlink="http://www.w3.org/1999/xlink" x="0px" y="0px"
	 viewBox="0 0 256 256" style="enable-background:new 0 0 256 256;" xml:space="preserve">
<style type="text/css">
	.st0{fill-rule:evenodd;clip-rule:evenodd;fill:#FFFFFF;}
	.st1{fill-rule:evenodd;clip-rule:evenodd;fill:#FFC305;}
	.st2{fill:#E51C24;}
	.st3{fill-rule:evenodd;clip-rule:evenodd;fill:#E51C24;}
	.st4{fill-rule:evenodd;clip-rule:evenodd;fill:#124B98;}
</style>
<g id="burger_king_1_">
	<path class="st0" d="M128,0c70.7,0,128,57.3,128,128c0,70.7-57.3,128-128,128C57.3,256,0,198.7,0,128C0,57.4,57.3,0,128,0L128,0z"
		/>
	<path class="st1" d="M134.6,21.1c19.2,0,36.8,6.8,50.9,18.2c3,2.7,2.5,4.7-0.5,5.1c-42.2,8.3-84.5,19.9-126.7,33.4
		c-4.6,1.3-2.5-7.6-0.6-10.6C74.3,39.6,102.8,21.1,134.6,21.1L134.6,21.1z M208.8,160.3c-15.6,31.6-46.3,53.5-80.8,53.5
		c-16.6,0-32-5-44.9-13.8c-3.5-2.8-2.5-5.2,0.8-6.4c36.7-14.3,75.7-27.1,118.4-37.5C207.2,154.9,211,155.7,208.8,160.3L208.8,160.3z
		"/>
	<path class="st0" d="M161.8,202c16.2-11.4,25.6-21.9,28.8-31.6c1.9-6.6,7.7-5,6.2-0.1C189.1,189.2,173.8,197.3,161.8,202L161.8,202
		z"/>
	<path class="st0" d="M92.9,36c-8.6,5.3-17.6,9.7-25.6,29.8C66.2,69.8,71,71,72,67.5C74.5,55.6,82.2,45.4,92.9,36L92.9,36z"/>
	<path class="st0" d="M134.5,25.7c38.1,2.2,44.3,14.2,25.1,19.7C166.6,34.9,156.4,28.8,134.5,25.7L134.5,25.7z"/>
	<polygon class="st2" points="232.4,169 232.4,165.7 230.9,165.7 230.9,165 235,165 235,165.7 233.5,165.7 233.5,169 232.4,169 	"/>
	<polygon class="st2" points="235.7,169 235.7,165 237.3,165 238.2,167.7 239.2,165 240.8,165 240.8,169 239.8,169 239.8,165.9 
		238.7,169 237.7,169 236.7,165.9 236.7,169 235.7,169 	"/>
	<path class="st3" d="M44.5,143.1v58c4.6-1.9,9.2-3.7,13.7-5.6c3.3-1.1,4.3-3.6,4-7.5l0.3-18.9c5.3,5.3,10.7,10.5,16,15.8
		c7.2,7.4,19.2-6.2,13.7-11.9l-12.6-13.9c4.2-7.4,8.4-14.8,12.6-22.2c4.6-7.4-8-15.2-13.7-7.5l-16.7,26.1l0.1-20.3L44.5,143.1
		L44.5,143.1z"/>
	<path class="st3" d="M96.6,129.5c0,1.1-0.2,52.6-0.2,52.6c3.9-1.6,7.8-3.2,11.7-4.8c4.8-2.1,6.6-5.3,6.7-9.6l0.4-52.2
		c-4.2,1.7-8.4,3.3-12.6,5C98.6,122.8,96.7,125.5,96.6,129.5L96.6,129.5z"/>
	<path class="st3" d="M120.9,172.6l-0.4-57.6c3.3-1.2,6.6-2.3,9.9-3.5c3.7-1.5,6.7,0.4,8.1,2.6l16.8,17.8c-0.1-6.7-0.2-13.3-0.2-20
		c-0.2-4.1,3.9-7,9-8.7l7.2-2.2l0.2,53.5c0,6.1-11.2,9.3-14.6,5.2c-2.3-3.1-19-20.7-19-20.7l-0.7,22.4
		C136.7,167.8,131.7,169.9,120.9,172.6L120.9,172.6z"/>
	<path class="st3" d="M200.4,118.2l24.7-5.9V136c-2.5,9.1-10.1,14.1-23.5,16.1c-17.2,1.6-27.6-7.8-27.3-25.7
		c3.4-25.4,18.1-36.5,44.2-33.5c13,1.9,8.3,16.1-2.7,13.9c-14.4-2.7-24,4.3-24.7,17c0.6,12.8,9.6,18.1,18.8,10.7l0.2-5.7
		c-5.8,1.3-10,1-9.9-3.7C200.2,125.1,200.9,118.4,200.4,118.2L200.4,118.2z"/>
	<path class="st3" d="M143.9,79.5l16-3.9v15.8c-1.6,6.1-6.5,9.4-15.3,10.8c-11.2,1.1-17.9-5.2-17.7-17.2c2.2-17,11.7-24.4,28.7-22.4
		c8.4,1.3,5.4,10.8-1.7,9.3c-9.3-1.8-15.6,2.9-16,11.3c0.4,8.6,6.2,12.1,12.2,7.1l0.1-3.8c-3.8,0.9-6.5,0.7-6.4-2.5
		C143.7,84.2,144.1,79.6,143.9,79.5L143.9,79.5z"/>
	<path class="st3" d="M45.3,116.9l-0.5,11.3c4.3-1.6,8.8-3.8,8.7-9.6C53.6,115.6,49.9,114.6,45.3,116.9L45.3,116.9z M45.3,100.9
		l-0.5,10.5c4-1.4,8.1-3.6,8.1-8.9C52.9,99.8,49.5,98.8,45.3,100.9L45.3,100.9z M35.2,97.5c0.2,0.9,0.2,43.3,0.2,43.3l21.4-9.8
		c10-5.2,10-20.8,1.6-20c8-8.1,2.9-22.2-5-19.7L35.2,97.5L35.2,97.5z"/>
	<path class="st3" d="M65.6,89.1c0,0.9-0.2,26.7-0.2,26.7c-0.1,6.8,7.6,9.6,14.3,8.3c9-1.8,13.9-7.1,14.3-15.1
		c0.1-9.7,0.1-18,0.2-27.6C94.1,76,83.9,77.9,83.6,83c0.1,9,0.2,17.1,0.3,26.1c-0.7,6.5-8,6.8-7.9,1.2c0-7.6,0-15.2,0-22.8
		C76.1,82.2,65.5,83,65.6,89.1L65.6,89.1z"/>
	<path class="st3" d="M97.8,115.8l-0.5-39.5l15.9-4.8c9.9-3,17,10.2,6,20.9c2.5,2.8,5,5.5,7.6,8.3c3.7,4.6-4,10.9-8.2,7.2l-10.1-9.2
		c-0.2,3.1-0.3,6.1-0.5,9.2C107.6,112.4,104.2,114.6,97.8,115.8L97.8,115.8z M108.1,80c8.6-4.1,9.9,7-0.2,11.7
		C107.9,88,108,83.8,108.1,80L108.1,80z"/>
	<path class="st3" d="M188.1,91.7l-0.3-38.2l16.4-2.6c10.2-1.6,17.5,12,6,21c2.6,3,5.2,6,7.7,9c3.8,4.9-4.2,10-8.5,5.9l-10.4-10.2
		c-0.2,2.9-0.4,5.9-0.5,8.8C198.2,89.7,194.8,91.4,188.1,91.7L188.1,91.7z M198.9,58.5c8.9-2.8,10.1,8-0.2,11.3
		C198.8,66.2,198.8,62.1,198.9,58.5L198.9,58.5z"/>
	<path class="st3" d="M162.5,58.7l0.3,38.7c6.2-1.2,10.4-2.1,16.6-3.3c6.4-1.5,6.7-5.7,6.4-10.4l-12.7,3v-8.2
		c11-1.8,12-3.2,11.5-9.4l-12,2.1c0-2,0-4.4,0-6.4c11.1-2.1,13.1-3.3,13-10.7L162.5,58.7L162.5,58.7z"/>
	<path class="st4" d="M128.8,9.6c10.8,0,21.2,1.4,31.2,4l-0.7,1.2c-24-5-58.3,2.5-73.5,9.4C48,39.9,21.3,77.9,21.3,122.1
		c0,23.9,7.8,45.9,20.9,63.6V205l12.6-5c18.3,17.2,42.7,27.7,69.4,27.7c42.2,0,78.7-26.3,94.5-63.8c6.4,3.5,15,8.3,22,12.2
		c-18.7,42.6-61.9,72.5-112,72.5C61.7,248.6,7,194.9,7,129.1C7,63.3,61.7,9.6,128.8,9.6L128.8,9.6z"/>
</g>
</svg>
