<?xml version="1.0" encoding="utf-8"?>
<!-- Generator: Adobe Illustrator 21.0.1, SVG Export Plug-In . SVG Version: 6.00 Build 0)  -->
<svg version="1.1" xmlns="http://www.w3.org/2000/svg" xmlns:xlink="http://www.w3.org/1999/xlink" x="0px" y="0px"
	 viewBox="0 0 24 24" style="enable-background:new 0 0 24 24;" xml:space="preserve">
<style type="text/css">
	.st0{fill:none;}
	.st1{display:none;opacity:0.26;}
	.st2{display:none;}
	.st3{opacity:0.26;}
</style>
<g id="Layer_1">
	<path class="st0" d="M0,0h24v24H0V0z"/>
	<path class="st1" d="M19.4,13c0-0.3,0.1-0.6,0.1-1s0-0.7-0.1-1l2.1-1.6c0.2-0.1,0.2-0.4,0.1-0.6l-2-3.5c-0.1-0.2-0.4-0.3-0.6-0.2
		l-2.5,1c-0.5-0.4-1.1-0.7-1.7-1l-0.4-2.7C14.5,2.2,14.3,2,14,2h-4C9.8,2,9.5,2.2,9.5,2.4L9.1,5.1C8.5,5.3,8,5.7,7.4,6.1l-2.5-1
		C4.7,5,4.5,5.1,4.3,5.3l-2,3.5C2.2,8.9,2.3,9.2,2.5,9.4L4.6,11c0,0.3-0.1,0.6-0.1,1s0,0.7,0.1,1l-2.1,1.6c-0.2,0.1-0.2,0.4-0.1,0.6
		l2,3.5C4.5,18.9,4.7,19,5,18.9l2.5-1c0.5,0.4,1.1,0.7,1.7,1l0.4,2.6c0,0.2,0.2,0.4,0.5,0.4h4c0.3,0,0.5-0.2,0.5-0.4l0.4-2.6
		c0.6-0.3,1.2-0.6,1.7-1l2.5,1c0.2,0.1,0.5,0,0.6-0.2l2-3.5c0.1-0.2,0.1-0.5-0.1-0.6L19.4,13z M12,15.5c-1.9,0-3.5-1.6-3.5-3.5
		s1.6-3.5,3.5-3.5s3.5,1.6,3.5,3.5S13.9,15.5,12,15.5z"/>
	<rect x="6.4" y="13.8" class="st2" width="2.7" height="2.5"/>
	
		<image style="display:none;overflow:visible;" width="307" height="468" xlink:href="../../original_files/Screenshot_20170202-123748.png"  transform="matrix(0.2964 0 0 0.2964 -41.0627 -61.8884)">
	</image>
</g>
<g id="Layer_2" class="st3">
	<path d="M20,14.7H4c-1.1,0-2-0.9-2-2v0c0-1.1,0.9-2,2-2h16c1.1,0,2,0.9,2,2v0C22,13.8,21.1,14.7,20,14.7z"/>
	<path d="M12,2.2c-8.3,0-9.8,3.6-9.7,4.7s0.8,1.2,0.8,1.2H12h8.9c0,0,0.7-0.1,0.8-1.2S20.3,2.2,12,2.2z"/>
	<path d="M20.9,17.2H12H3.1c0,0-0.8,0.3-0.8,1.2c0,0.9,1.1,3.4,9.7,3.4s9.7-2.4,9.7-3.4C21.7,17.4,20.9,17.2,20.9,17.2z"/>
</g>
</svg>
