<?xml version="1.0" encoding="utf-8"?>
<!-- Generator: Adobe Illustrator 21.0.1, SVG Export Plug-In . SVG Version: 6.00 Build 0)  -->
<svg version="1.1" id="Layer_1" xmlns="http://www.w3.org/2000/svg" xmlns:xlink="http://www.w3.org/1999/xlink" x="0px" y="0px"
	 viewBox="0 0 230 144" style="enable-background:new 0 0 230 144;" xml:space="preserve">
<style type="text/css">
	.st0{fill:#FFFFFF;}
	.st1{fill:#E41F18;}
</style>
<g id="max_5_">
	<path class="st0" d="M177.6,74.2c0,0-17.1-26.5-17.9-27.7c-1.3,0-10.7,0-10.7,0l-0.3-0.9c-8.2-21.7-28.1-36.2-36.3-41.5
		c0,0-0.9-0.6-1.6-1.1c-0.7,0.4-1.6,1.1-1.6,1.1C100.9,9.3,81,23.9,72.8,45.6l-0.3,0.9c0,0-6.1,0-7.3,0
		c-0.8,1.2-17.3,29.3-17.3,29.3L27.4,46.5H2.7c0,2.6,0,92,0,94.6c2.3,0,23.3,0,25.6,0c0-2.5,0-45.9,0-45.9l19.4,23.1l18.8-23.1
		c0,0,0,43.4,0,46c2.4,0,27.8,0,29.1,0c0-2.5,0-31,0-31h30.2c0,0,0,28.5,0,31c2.2,0,32.2,0,33.6,0c0.8-1.2,18.1-28.1,18.1-28.1
		s17.4,27,18.2,28.1c1.3,0,25.4,0,29.5,0c-2.5-3.8-30.2-46.6-30.2-46.6s28.5-44.2,30.9-48c-4.2,0-29.3,0-30.6,0
		C194.6,47.7,177.6,74.2,177.6,74.2z M220.4,49.5l-29,45l28.2,43.6h-22.3l-19.8-30.7l-19.8,30.7h-28.9v-31H92.6v31h-23V85.8
		L47.8,113L25.3,85.8v52.2H5.8V49.5h19.4l22.6,31.9l19.5-31.9h7.1c6.4-20.6,25.1-35.7,36.2-42.8l0,0h0c0,0,0,0,0,0
		c11.2,7.2,29.8,22.3,36.2,42.8H158l19.5,30.3l19.5-30.3H220.4z"/>
	<path class="st0" d="M149.3,116.9l15-22.4l-15-22.4V116.9z M151.8,81.9l8.8,12.6l-8.8,13.3V81.9z"/>
	<path class="st0" d="M110.7,33.7C93.1,49.6,92.4,63.3,92.4,90h36.7C129.1,67.8,128.3,49.6,110.7,33.7z M126,86.9H95.4l0-1.4
		c0.1-19.7,1.1-33.2,14.3-46.5l1-1l1,1c11.8,12.3,14.1,26.2,14.3,46.5L126,86.9z"/>
	<polygon class="st1" points="110.7,33.7 110.7,33.7 110.7,33.7 	"/>
	<path class="st1" d="M223.1,75.5c-0.7-0.3-1.4-0.4-2.1-0.4c-0.7,0-1.4,0.1-2.1,0.4c-0.7,0.3-1.2,0.7-1.7,1.1
		c-0.5,0.5-0.9,1-1.2,1.7c-0.3,0.7-0.4,1.4-0.4,2.1c0,0.8,0.1,1.5,0.4,2.2c0.3,0.7,0.7,1.2,1.2,1.7c0.5,0.5,1.1,0.9,1.7,1.1
		c0.7,0.3,1.4,0.4,2.1,0.4c0.7,0,1.4-0.1,2.1-0.4c0.7-0.3,1.2-0.7,1.7-1.1c0.5-0.5,0.9-1.1,1.2-1.7c0.3-0.7,0.4-1.4,0.4-2.2
		c0-0.8-0.2-1.5-0.4-2.1c-0.3-0.7-0.7-1.2-1.2-1.7C224.3,76.2,223.7,75.8,223.1,75.5z M225.4,80.5c0,0.7-0.1,1.3-0.3,1.9
		c-0.2,0.6-0.5,1-0.9,1.5c-0.4,0.4-0.9,0.8-1.4,1c-0.5,0.2-1.1,0.4-1.8,0.4c-0.6,0-1.2-0.1-1.8-0.4c-0.5-0.2-1-0.6-1.4-1
		c-0.4-0.4-0.7-0.9-0.9-1.5c-0.2-0.6-0.3-1.2-0.3-1.9c0-0.7,0.1-1.3,0.3-1.8c0.2-0.6,0.5-1,0.9-1.5c0.4-0.4,0.9-0.7,1.4-1
		c0.5-0.2,1.1-0.4,1.8-0.4c0.6,0,1.2,0.1,1.8,0.4c0.5,0.2,1,0.6,1.4,1c0.4,0.4,0.7,0.9,0.9,1.5C225.3,79.3,225.4,79.9,225.4,80.5z"
		/>
	<path class="st1" d="M223,80.4c0.3-0.3,0.5-0.7,0.5-1.3c0-0.6-0.2-1.1-0.5-1.4c-0.4-0.3-0.9-0.4-1.7-0.4h-2.4v6.3h1V81h1l1.7,2.7
		h1.1l-1.8-2.8C222.3,80.8,222.7,80.7,223,80.4z M220.9,80.2h-1v-2h1.3c0.2,0,0.3,0,0.5,0c0.2,0,0.3,0.1,0.4,0.1
		c0.1,0.1,0.2,0.2,0.3,0.3c0.1,0.1,0.1,0.3,0.1,0.5c0,0.2,0,0.4-0.1,0.6c-0.1,0.1-0.2,0.2-0.4,0.3c-0.2,0.1-0.3,0.1-0.5,0.1
		C221.3,80.2,221.1,80.2,220.9,80.2z"/>
	<path class="st1" d="M110.7,38l-1,1C96.6,52.4,95.6,65.8,95.4,85.6l0,1.4H126l0-1.4c-0.2-20.4-2.5-34.3-14.3-46.5L110.7,38z
		 M98.2,84.2c0.2-19.3,1.7-30.7,12.5-42.2c10.1,11.1,12.3,23.5,12.6,42.2C120.9,84.2,100.5,84.2,98.2,84.2z"/>
	<polygon class="st1" points="110.7,6.7 110.7,6.7 110.7,6.7 	"/>
	<path class="st1" d="M158,49.5H147c-6.4-20.6-25.1-35.7-36.2-42.8c-11.2,7.2-29.8,22.3-36.2,42.8h-7.1L47.8,81.4L25.2,49.5H5.8
		v88.5h19.6V85.8L47.8,113l21.8-27.1v52.2h23v-31h36.3v31h28.9l19.8-30.7l19.8,30.7h22.3l-28.2-43.6l29-45h-23.3l-19.5,30.3
		L158,49.5z M92.4,90c0-26.6,0.8-40.4,18.3-56.2l0,0h0c0,0,0,0,0,0c17.6,15.8,18.3,34,18.3,56.2H92.4z M149.3,116.9V72.1l15,22.4
		L149.3,116.9z"/>
	<path class="st1" d="M151.8,81.9v25.9l8.8-13.3L151.8,81.9z M153.9,88.6l4.3,5.8l-4.3,6.3C153.9,95.6,153.9,93.8,153.9,88.6z"/>
	<path class="st1" d="M193.9,43.8c0,0-14.4,22.3-16.4,25.4c-2-3.1-16.4-25.4-16.4-25.4s-8.9,0-10.4,0c-8.7-22-28.7-36.6-37-41.9
		l-3.1-2l-3.1,2c-8.3,5.3-28.3,20-37,41.9c-1.3,0-7,0-7,0l-15.9,27l-19-27H0v100h31.1c0,0,0-32.5,0-39.9l16.7,19.6l16.1-19.8
		c0,7.3,0,40,0,40l23.1,0c0,0,5.6,0,5.6,0h5.7c0,0,0-28.5,0-31c2.3,0,22.5,0,24.8,0c0,2.5,0,31,0,31h37.8c0,0,14.7-22.8,16.7-25.8
		c2,3.1,16.7,25.8,16.7,25.8h34.2c0-0.4,0-0.9,0-1.5c0-0.8,0-1.1-0.5-2.1c-7.2-11.1-28.9-44.6-29.7-45.8c0.8-1.2,23.8-37,30.7-47.7
		c0.1-0.2,0.2-0.4,0.3-0.8c0.2-0.7,0.2-1.7,0.2-2.2H193.9z M195,94.5c0,0,27.7,42.8,30.2,46.6c-4.2,0-28.2,0-29.5,0
		c-0.8-1.2-18.2-28.1-18.2-28.1s-17.4,27-18.1,28.1c-1.4,0-31.4,0-33.6,0c0-2.5,0-31,0-31H95.6c0,0,0,28.5,0,31
		c-1.3,0-26.6,0-29.1,0c0-2.5,0-46,0-46l-18.8,23.1L28.4,95.2c0,0,0,43.3,0,45.9c-2.3,0-23.3,0-25.6,0c0-2.6,0-92,0-94.6h24.7
		l20.5,29.3c0,0,16.6-28.1,17.3-29.3c1.2,0,7.3,0,7.3,0l0.3-0.9C81,23.9,100.9,9.3,109.1,4.1c0,0,0.9-0.6,1.6-1.1
		c0.7,0.4,1.6,1.1,1.6,1.1c8.2,5.2,28.1,19.8,36.3,41.5l0.3,0.9c0,0,9.4,0,10.7,0c0.8,1.2,17.9,27.7,17.9,27.7s17.1-26.5,17.9-27.7
		c1.3,0,26.4,0,30.6,0C223.5,50.3,195,94.5,195,94.5z"/>
</g>
</svg>
